REM DIRINDEX 1\3,1\2\4,1\2\5,1\2\6
REM DIRNAME folder01,folder02,folder03,folder04,folder05,folder06
TITLE ""
FILE "100.mp3" MP3
  TRACK 01 AUDIO
    TITLE "0:"
    INDEX 01 00:00:00
  TRACK 02 AUDIO
    TITLE "4:cjc137_4119"
    INDEX 01 00:00:03
  TRACK 03 AUDIO
    TITLE "0:"
    INDEX 01 00:01:15
  TRACK 04 AUDIO
    TITLE "6:cjc137_4120"
    INDEX 01 00:01:22
  TRACK 05 AUDIO
    TITLE "0:"
    INDEX 01 00:02:57
  TRACK 06 AUDIO
    TITLE "5:cjc137_4121"
    INDEX 01 00:02:63
  TRACK 07 AUDIO
    TITLE "0:"
    INDEX 01 00:04:03
  TRACK 08 AUDIO
    TITLE "4:cjc137_4122"
    INDEX 01 00:05:14
  TRACK 09 AUDIO
    TITLE "0:"
    INDEX 01 00:06:35
  TRACK 10 AUDIO
    TITLE "6:cjc137_4123"
    INDEX 01 00:06:41
  TRACK 11 AUDIO
    TITLE "0:"
    INDEX 01 00:07:54
  TRACK 12 AUDIO
    TITLE "5:cjc137_4124"
    INDEX 01 00:07:66
  TRACK 13 AUDIO
    TITLE "0:"
    INDEX 01 00:09:12
  TRACK 14 AUDIO
    TITLE "4:cjc137_4125"
    INDEX 01 00:10:23
  TRACK 15 AUDIO
    TITLE "0:"
    INDEX 01 00:11:46
  TRACK 16 AUDIO
    TITLE "6:cjc137_4126"
    INDEX 01 00:11:52
  TRACK 17 AUDIO
    TITLE "0:"
    INDEX 01 00:13:18
  TRACK 18 AUDIO
    TITLE "5:cjc137_4127"
    INDEX 01 00:13:26
  TRACK 19 AUDIO
    TITLE "0:"
    INDEX 01 00:14:47
  TRACK 20 AUDIO
    TITLE "4:cjc137_4128"
    INDEX 01 00:15:58
  TRACK 21 AUDIO
    TITLE "0:"
    INDEX 01 00:17:10
  TRACK 22 AUDIO
    TITLE "6:cjc137_4129"
    INDEX 01 00:17:16
  TRACK 23 AUDIO
    TITLE "0:"
    INDEX 01 00:18:44
  TRACK 24 AUDIO
    TITLE "5:cjc137_4130"
    INDEX 01 00:18:52
  TRACK 25 AUDIO
    TITLE "0:"
    INDEX 01 00:20:02
  TRACK 26 AUDIO
    TITLE "4:cjc137_4131"
    INDEX 01 00:21:11
  TRACK 27 AUDIO
    TITLE "0:"
    INDEX 01 00:22:30
  TRACK 28 AUDIO
    TITLE "6:cjc137_4132"
    INDEX 01 00:22:36
  TRACK 29 AUDIO
    TITLE "0:"
    INDEX 01 00:23:24
  TRACK 30 AUDIO
    TITLE "5:cjc137_4133"
    INDEX 01 00:23:36
  TRACK 31 AUDIO
    TITLE "0:"
    INDEX 01 00:24:55
  TRACK 32 AUDIO
    TITLE "4:cjc137_4134"
    INDEX 01 00:25:64
  TRACK 33 AUDIO
    TITLE "0:"
    INDEX 01 00:26:67
  TRACK 34 AUDIO
    TITLE "6:cjc137_4135"
    INDEX 01 00:27:08
  TRACK 35 AUDIO
    TITLE "0:"
    INDEX 01 00:28:25
  TRACK 36 AUDIO
    TITLE "5:cjc137_4136"
    INDEX 01 00:28:31
  TRACK 37 AUDIO
    TITLE "0:"
    INDEX 01 00:29:34
  TRACK 38 AUDIO
    TITLE "4:cjc137_4137"
    INDEX 01 00:30:54
  TRACK 39 AUDIO
    TITLE "0:"
    INDEX 01 00:31:67
  TRACK 40 AUDIO
    TITLE "6:cjc137_4138"
    INDEX 01 00:32:00
  TRACK 41 AUDIO
    TITLE "0:"
    INDEX 01 00:33:09
  TRACK 42 AUDIO
    TITLE "5:cjc137_4139"
    INDEX 01 00:33:13
  TRACK 43 AUDIO
    TITLE "0:"
    INDEX 01 00:34:28
  TRACK 44 AUDIO
    TITLE "4:cjc137_4140"
    INDEX 01 00:35:35
  TRACK 45 AUDIO
    TITLE "0:"
    INDEX 01 00:36:48
  TRACK 46 AUDIO
    TITLE "6:cjc137_4141"
    INDEX 01 00:36:54
  TRACK 47 AUDIO
    TITLE "0:"
    INDEX 01 00:37:63
  TRACK 48 AUDIO
    TITLE "5:cjc137_4142"
    INDEX 01 00:37:69
  TRACK 49 AUDIO
    TITLE "0:"
    INDEX 01 00:39:07
  TRACK 50 AUDIO
    TITLE "4:cjc137_4143"
    INDEX 01 00:40:15
  TRACK 51 AUDIO
    TITLE "0:"
    INDEX 01 00:41:51
  TRACK 52 AUDIO
    TITLE "6:cjc137_4144"
    INDEX 01 00:41:55
  TRACK 53 AUDIO
    TITLE "0:"
    INDEX 01 00:43:35
  TRACK 54 AUDIO
    TITLE "5:cjc137_4145"
    INDEX 01 00:43:42
  TRACK 55 AUDIO
    TITLE "0:"
    INDEX 01 00:45:06
  TRACK 56 AUDIO
    TITLE "4:cjc137_4146"
    INDEX 01 00:46:11
  TRACK 57 AUDIO
    TITLE "0:"
    INDEX 01 00:47:07
  TRACK 58 AUDIO
    TITLE "6:cjc137_4147"
    INDEX 01 00:47:19
  TRACK 59 AUDIO
    TITLE "0:"
    INDEX 01 00:48:06
  TRACK 60 AUDIO
    TITLE "5:cjc137_4148"
    INDEX 01 00:48:12
  TRACK 61 AUDIO
    TITLE "0:"
    INDEX 01 00:49:06
  TRACK 62 AUDIO
    TITLE "4:cjc137_4149"
    INDEX 01 00:50:19
  TRACK 63 AUDIO
    TITLE "0:"
    INDEX 01 00:51:52
  TRACK 64 AUDIO
    TITLE "6:cjc137_4150"
    INDEX 01 00:51:58
  TRACK 65 AUDIO
    TITLE "0:"
    INDEX 01 00:52:57
  TRACK 66 AUDIO
    TITLE "5:cjc137_4151"
    INDEX 01 00:52:61
  TRACK 67 AUDIO
    TITLE "0:"
    INDEX 01 00:54:19
  TRACK 68 AUDIO
    TITLE "4:cjc137_4152"
    INDEX 01 00:55:26
  TRACK 69 AUDIO
    TITLE "0:"
    INDEX 01 00:56:31
  TRACK 70 AUDIO
    TITLE "6:cjc137_4153"
    INDEX 01 00:56:37
  TRACK 71 AUDIO
    TITLE "0:"
    INDEX 01 00:57:48
  TRACK 72 AUDIO
    TITLE "5:cjc137_4154"
    INDEX 01 00:57:54
  TRACK 73 AUDIO
    TITLE "0:"
    INDEX 01 00:58:58
  TRACK 74 AUDIO
    TITLE "4:cjc137_4155"
    INDEX 01 00:59:65
  TRACK 75 AUDIO
    TITLE "0:"
    INDEX 01 01:01:01
  TRACK 76 AUDIO
    TITLE "6:cjc137_4156"
    INDEX 01 01:01:07
  TRACK 77 AUDIO
    TITLE "0:"
    INDEX 01 01:02:24
  TRACK 78 AUDIO
    TITLE "5:cjc137_4157"
    INDEX 01 01:02:30
  TRACK 79 AUDIO
    TITLE "0:"
    INDEX 01 01:03:41
  TRACK 80 AUDIO
    TITLE "4:cjc137_4158"
    INDEX 01 01:04:48
  TRACK 81 AUDIO
    TITLE "0:"
    INDEX 01 01:05:58
  TRACK 82 AUDIO
    TITLE "6:cjc137_4159"
    INDEX 01 01:05:64
  TRACK 83 AUDIO
    TITLE "0:"
    INDEX 01 01:07:02
  TRACK 84 AUDIO
    TITLE "5:cjc137_4160"
    INDEX 01 01:07:08
  TRACK 85 AUDIO
    TITLE "0:"
    INDEX 01 01:08:17
